PathFileType	4	(X/Y/Z)	D:\TRACE\v60_Jaco2_6-2-23\ArmBody_Mo1_DMP_1-platform.trc
DataRate	CameraRate	NumFrames	NumMarkers	Units	OrigDataRate	OrigDataStartFrame	OrigNumFrames
100.00	100.00	      73	5	mm	100.00	5069	      5792
Frame#	Time	Left_Front			Right_Front			Left_Aft			Right_Aft			Post			
		X1	Y1	Z1	X2	Y2	Z2	X3	Y3	Z3	X4	Y4	Z4	X5	Y5	Z5	

5069	50.680				793.45758	7.80990	-633.13409	-706.36237	8.20183	480.86603	711.16956	10.88148	582.84955	16.15679	1304.06970	-972.28973	
5070	50.690				792.47742	7.35297	-633.23804	-707.29260	8.65677	480.57166	710.52881	11.28039	582.73810	15.54792	1303.43433	-972.83868	
5071	50.700				791.91968	6.80268	-633.18781	-707.91730	8.81993	480.60815	709.47571	11.61551	582.54578	14.56080	1302.55469	-973.30750	
5072	50.710				790.66132	6.23795	-633.60437	-709.05432	9.19103	480.54626	708.50836	11.87374	582.41730	13.28549	1302.02783	-973.66406	
5073	50.720				789.56818	6.02072	-633.49585	-709.82019	9.53698	480.26828	707.69312	12.36125	582.38580	12.63048	1301.58911	-974.26483	
5074	50.730				788.87445	5.63248	-633.57263	-710.98785	9.93552	479.92374	706.26563	12.65636	582.30713	11.65450	1300.58557	-974.92651	
5075	50.740				787.87653	4.75549	-633.96289	-711.73486	9.75916	480.18774	705.79602	13.00216	582.26624	10.72968	1300.08997	-975.74890	
5076	50.750				787.05536	4.44276	-633.78931	-712.28027	9.83751	480.15836	704.87000	13.47426	582.04474	9.74057	1299.33447	-976.64343	
5077	50.760				785.92194	3.59165	-633.97192	-713.64990	10.69546	479.97818	703.71063	13.68491	581.81567	8.84841	1298.65332	-977.89404	
5078	50.770				785.09991	3.24416	-634.31171	-714.64996	11.04584	479.65198	702.80316	14.08134	581.77185	8.13401	1298.13440	-979.22876	
5079	50.780				784.29218	3.14660	-634.25079	-715.42249	10.77404	479.77658	701.92578	14.40754	581.63135	7.17639	1297.37500	-980.48999	
5080	50.790				782.90643	2.61686	-634.25391	-716.32227	11.03997	479.70972	700.99634	14.81903	581.72888	6.19562	1296.82654	-982.08936	
5081	50.800				782.48950	2.34035	-634.37158	-717.24011	11.64142	479.51303	699.87451	15.09914	581.56152	5.10659	1296.42957	-983.37933	
5082	50.810				781.38794	1.75120	-634.55078	-718.61267	12.35315	479.17737	698.97980	15.34518	581.57092	4.29257	1295.82336	-984.55359	
5083	50.820				780.25745	1.52205	-634.41028	-719.40063	12.52087	479.04272	698.15179	15.88799	581.37860	3.49069	1295.00745	-985.54559	
5084	50.830				779.13184	0.99983	-634.76508	-720.25543	12.06365	479.25034	697.19171	16.14015	581.28833	2.26232	1294.39697	-986.32007	
5085	50.840				778.52765	0.48986	-634.86987	-721.27881	12.52650	479.28378	696.19617	16.48123	581.11102	1.38225	1293.86853	-986.99792	
5086	50.850				777.49823	0.41379	-634.79199	-722.03180	13.20433	478.91098	695.44739	16.93455	580.91046	0.45764	1293.12488	-987.66345	
5087	50.860				776.24487	-0.20731	-635.10333	-723.13287	13.36479	478.77490	693.58026	16.37547	580.21545	-0.63462	1292.55164	-988.11322	
5088	50.870				775.58972	-0.64954	-635.29071	-723.92639	13.59599	478.66217	692.80365	17.09864	580.45154	-1.70203	1291.94885	-988.64734	
5089	50.880				774.50507	-0.93074	-635.22760	-725.12695	13.98454	478.48859	691.84412	17.63617	580.56500	-2.59797	1291.16077	-989.14923	
5090	50.890				773.11346	-1.66008	-635.49078	-726.50879	14.51989	478.29913	691.03217	17.88021	580.45355	-3.25820	1290.59314	-989.79413	
5091	50.900				772.63177	-1.98743	-635.51776	-727.07697	14.72037	478.06281	690.32983	18.30374	580.34509	-4.12541	1289.87561	-990.94745	
5092	50.910				771.63885	-2.25774	-635.46881	-728.19586	15.07253	478.11188	689.41132	18.58340	580.31750	-5.30695	1289.51147	-991.61261	
5093	50.920				770.43713	-2.60413	-635.71185	-728.75378	14.75512	478.32349	688.26733	18.91914	580.04407	-6.06519	1289.05115	-992.71405	
5094	50.930				769.54297	-2.95995	-635.87555	-730.05084	15.23488	478.09210	687.38544	19.05106	579.87714	-7.04812	1288.45959	-993.83221	
5095	50.940				768.69952	-3.35649	-635.80798	-731.24261	15.68969	478.03903	686.32434	19.31880	579.76166	-8.10749	1287.89429	-994.92383	
5096	50.950				767.69910	-3.57816	-635.83514	-731.47687	15.16732	478.07364	685.34418	19.66628	579.79395	-9.20221	1287.36462	-995.72607	
5097	50.960				766.82300	-4.02442	-635.90747	-732.78955	15.67711	478.00671	684.28412	19.90243	579.65955	-10.16102	1286.83545	-996.75342	
5098	50.970				765.87256	-4.27408	-636.12756	-733.83392	16.25673	477.73544	683.65747	20.24353	579.59119	-11.04731	1286.41357	-997.56714	
5099	50.980				764.85425	-4.62026	-636.15497	-734.93304	16.70620	477.33759	682.65186	20.46760	579.46851	-11.95571	1285.91772	-998.35803	
5100	50.990				763.89685	-4.98123	-636.12122	-736.06763	16.97012	477.18176	681.36310	20.50572	579.46674	-13.07574	1285.36243	-998.84283	
5101	51.000				763.16541	-5.43222	-636.29834	-736.29846	16.44024	477.48792	680.47070	20.89460	579.30042	-13.85588	1284.64258	-999.28058	
5102	51.010				762.04071	-5.89302	-636.43323	-737.51489	16.87858	477.61777	679.46210	20.96770	579.18951	-14.55575	1284.27942	-999.84430	
5103	51.020				761.06592	-6.10873	-636.30286	-738.58813	17.49197	477.30414	678.24280	20.84801	578.69653	-15.52833	1283.96130	-1000.39313	
5104	51.030				760.42847	-6.24914	-636.40015	-739.47241	17.85652	477.08408	678.10669	22.09566	579.05188	-16.58389	1283.17029	-1000.84442	
5105	51.040				759.34344	-6.83882	-636.66309	-740.28333	17.46477	477.21173	676.90009	22.28670	579.05798	-17.58076	1282.79443	-1001.39984	
5106	51.050				758.11896	-7.07206	-636.60004	-741.06042	17.50803	477.18262	676.21600	22.41748	578.99402	-18.19640	1282.53284	-1001.99164	
5107	51.060				757.51038	-7.17956	-636.51477	-741.99335	17.92108	477.09753	675.31030	22.75270	578.93335	-19.40466	1281.80664	-1002.79803	
5108	51.070				756.60187	-7.45021	-636.83698	-743.21332	18.50530	476.64896	674.30713	22.82319	578.84552	-20.41603	1281.48608	-1003.49506	
5109	51.080				755.25488	-7.77447	-637.02740	-744.02197	18.78404	476.49414	673.60962	23.14334	578.81250	-21.21937	1281.16528	-1004.26459	
5110	51.090				754.49567	-7.98703	-636.91272	-744.88812	18.61224	476.56219	672.60406	23.44567	578.77332	-22.11019	1280.83191	-1005.06036	
5111	51.100				754.01044	-8.25804	-636.89709	-745.63080	18.78761	476.68600	671.61725	23.42436	578.66229	-22.99693	1280.46228	-1005.69147	
5112	51.110				752.98010	-8.34895	-637.19086	-746.53455	19.09237	476.62717	670.93427	23.71070	578.51465	-23.85954	1279.94275	-1006.48065	
5113	51.120				751.69043	-8.48776	-637.14331	-747.65753	19.43435	476.43927	669.91998	23.94586	578.31665	-24.33079	1279.45288	-1007.10565	
5114	51.130				750.87939	-8.93547	-637.32104	-748.53851	19.79696	476.39032	668.83521	23.90911	578.19055	-25.37694	1279.10876	-1007.62085	
5115	51.140				750.64465	-9.15431	-637.27771	-749.22723	19.52485	476.42886	668.18744	24.17051	578.07996	-26.41573	1278.76099	-1007.94196	
5116	51.150				749.75696	-9.57033	-637.30469	-750.11725	19.97488	476.25092	666.98718	24.51180	578.05658	-27.20429	1278.23413	-1008.42633	
5117	51.160				748.54413	-10.10570	-637.35693	-750.90784	20.23923	476.14667	666.59204	24.83636	578.00000	-27.90127	1277.78174	-1008.65851	
5118	51.170				747.64294	-10.09287	-637.49719	-751.83466	20.35538	476.04590	666.06592	25.04922	577.97687	-28.70674	1277.23486	-1009.21747	
5119	51.180				747.24133	-10.32727	-637.62915	-752.66119	20.62609	475.87915	664.89569	25.27398	577.94440	-29.47647	1276.94910	-1009.84686	
5120	51.190				746.41174	-10.41385	-637.70679	-753.40930	20.83496	475.72055	664.08649	25.39971	577.83203	-30.40025	1276.65784	-1010.55402	
5121	51.200				745.17230	-10.69956	-637.77863	-754.09320	20.59630	475.89795	663.59241	25.65982	577.77637	-31.25887	1276.35132	-1011.13788	
5122	51.210				744.38196	-10.92498	-637.68793	-754.86395	20.90228	475.75204	662.80438	25.81690	577.74866	-31.78786	1276.07898	-1011.90906	
5123	51.220				743.94885	-10.98000	-637.76843	-755.45752	20.77748	475.85568	661.78284	25.87415	577.62067	-32.38398	1275.80042	-1012.37958	
5124	51.230				743.24841	-11.10674	-637.94159	-756.32495	20.88916	475.85956	661.06726	25.92523	577.56335	-32.82259	1275.56104	-1012.85907	
5125	51.240				742.25537	-11.21279	-637.92047	-757.26929	21.37038	475.79803	660.53577	26.08043	577.54083	-34.36460	1275.44336	-1013.29297	
5126	51.250				741.55530	-11.46446	-637.95648	-757.97345	21.56468	475.59943	659.43835	26.10990	577.46368	-35.05154	1275.18555	-1013.62994	
5127	51.260				740.93121	-11.71812	-637.93976	-758.58929	21.83204	475.41925	658.63910	26.23465	577.33783	-35.90752	1274.85132	-1013.70178	
5128	51.270				740.48090	-11.75882	-637.90491	-759.50934	21.89374	475.38263	658.24011	26.41283	577.36823	-35.99247	1274.71948	-1013.74445	
5129	51.280				739.65338	-11.98328	-638.04266	-760.15094	21.94304	475.38351	657.67297	26.48894	577.39679	-36.84332	1274.36340	-1013.87677	
5130	51.290				738.85638	-12.22532	-638.16968	-760.69940	21.84226	475.19479	656.86865	26.70568	577.39948	-37.43923	1274.06555	-1013.92328	
5131	51.300				738.19513	-12.52808	-638.10699	-761.19751	21.94516	475.18240	656.20795	26.99037	577.35712	-38.29990	1273.89185	-1014.03424	
5132	51.310				737.67798	-12.64085	-638.15381	-761.77643	22.11010	475.20816	655.68549	27.08274	577.26624	-38.78485	1273.65857	-1014.09686	
5133	51.320				737.42505	-12.73326	-638.03174	-762.53162	22.26191	475.07935	654.93304	27.14932	577.16742	-39.22485	1273.33862	-1014.47229	
5134	51.330				736.75293	-12.88921	-638.12201	-763.05524	22.38661	475.16199	654.51080	27.24168	577.17535	-39.84685	1273.04651	-1014.96100	
5135	51.340				735.94641	-13.22706	-638.27716	-763.90375	22.60420	475.11975	654.12518	27.45766	577.22736	-40.53130	1272.79846	-1015.49915	
5136	51.350				735.13354	-13.20792	-638.31763	-764.08185	22.27020	475.27405	653.50031	27.61559	577.15625	-41.17878	1272.62585	-1016.05621	
5137	51.360				734.66888	-13.31514	-638.32379	-764.50726	22.14985	475.23575	652.74609	27.70267	576.97845	-41.81405	1272.38013	-1016.86926	
5138	51.370				734.39844	-13.59020	-638.39319	-764.87262	22.14781	475.21729	652.24127	27.71975	576.92334	-42.37743	1272.23230	-1017.42517	
5139	51.380				734.08936	-13.68204	-638.30896	-765.16852	22.10513	475.16620	651.90692	27.72916	576.90253	-42.63062	1271.90479	-1017.88287	
5140	51.390				733.62592	-13.76498	-638.37225	-766.17493	22.63254	475.14618	651.50958	27.87832	576.97546	-43.24096	1271.78625	-1018.28656	
5141	51.400				733.04742	-13.81366	-638.38855	-766.65173	22.81251	475.15433	651.09827	28.00356	576.89471	-43.24543	1271.67432	-1018.50848	
